<svg xmlns="http://www.w3.org/2000/svg" viewBox="0 0 137 20"><title>Logo</title><path d="M47 6.2l-2.7 7.9-3-7.9h-4.2l5.2 12.7h3.9l4.9-12.7zM29.1 11.6h6.8V8h-6.8V4.6h7.5V.8H25.1v18.1h11.5V15h-7.5zM57.2 5.8c-3.3 0-6.3 2.6-6.3 6.7 0 4.3 3.1 6.8 6.6 6.8 3.2 0 5.2-1.8 5.9-4l-3.3-.9c-.4 1-1.2 1.7-2.6 1.7-1.5 0-2.8-1-2.9-2.5h8.9c0-.1.1-.7.1-1.2-.1-4.2-2.5-6.6-6.4-6.6zm2.6 5.2h-5.1c.1-.9.9-2.1 2.5-2.1 1.9 0 2.5 1.1 2.6 2.1zM68.9 7.9V6.2h-3.8v12.7H69v-5.5c0-2.5 1.4-3.4 3-3.4.4 0 .8 0 1.2.1V6.2c-.3-.1-.6-.1-1-.1-1 0-2.7.4-3.3 1.8zM122.3 16.6V.4h-3.8v6.8c-.3-.5-1.3-1.3-3.4-1.3-3.6 0-6.2 2.8-6.2 6.6 0 3.9 2.7 6.7 6.3 6.7 1.5 0 2.8-.6 3.4-1.5 0 .4 0 .8.1 1.2h3.7c0-.3-.1-1.1-.1-2.3zm-6.7-.9c-1.5 0-2.9-1.1-2.9-3.2s1.4-3.1 2.9-3.1 2.9 1 2.9 3.1-1.4 3.2-2.9 3.2zM107.5 10.7c0-2.6-1.5-4.9-5.6-4.9-3.7 0-5.4 2.4-5.6 4.2l3.4.7c.1-.9.8-1.9 2.2-1.9 1.2 0 1.9.6 1.9 1.4 0 .4-.2.8-.9.9l-3 .5c-2.1.3-3.8 1.6-3.8 3.8 0 2 1.6 3.9 4.4 3.9 1.7 0 2.9-.7 3.6-1.8 0 .9.1 1.3.1 1.4h3.5c0-.1-.2-1-.2-2v-6.2zm-3.8 3.2c0 2-1.2 2.5-2.3 2.5-1.1 0-1.5-.6-1.5-1.3 0-.9.6-1.3 1.4-1.4l2.4-.4v.6zM89.7 5.8c-1.7 0-2.9.6-3.9 2-.6-1.3-1.9-2-3.8-2-1.4 0-3 .7-3.7 1.8V6.2h-3.7v12.7h3.9v-7.3c0-1.1.7-2.2 2.1-2.2 1.4 0 2 .9 2 2.1v7.4h3.8v-7.3c0-1.1.7-2.2 2.1-2.2 1.4 0 2 .9 2 2.1v7.4h3.8v-8.2c.1-3.5-2.2-4.9-4.6-4.9zM136.7 12.3c0-4.1-2.4-6.5-6.4-6.5-3.3 0-6.4 2.6-6.4 6.7 0 4.3 3.1 6.8 6.6 6.8 3.2 0 5.2-1.8 5.9-4l-3.3-.9c-.4 1-1.2 1.7-2.6 1.7-1.5 0-2.8-1-2.9-2.5h8.9c.1-.2.2-.8.2-1.3zm-8.9-1.3c.1-.9.9-2.1 2.5-2.1 1.8 0 2.5 1.2 2.6 2.1h-5.1zM0 15.2h17.7v3.7H0zM0 .4h17.7v3.7H0zM0 7.8h17.7v3.7H0z"/></svg>